HIERARCHY
ROOT Hips
{
	OFFSET -14.64140 90.27770 -84.91600
	CHANNELS 6 Xposition Yposition Zposition Zrotation Xrotation Yrotation
	JOINT Spine
	{
		OFFSET 0.00000 13.20850 -1.60436
		CHANNELS 3 Zrotation Xrotation Yrotation
		JOINT Spine1
		{
			OFFSET 0.00000 8.61716 0.00000
			CHANNELS 3 Zrotation Xrotation Yrotation
			JOINT Spine2
			{
				OFFSET 0.00000 8.61717 0.00000
				CHANNELS 3 Zrotation Xrotation Yrotation
				JOINT Spine3
				{
					OFFSET 0.00000 8.61717 0.00000
					CHANNELS 3 Zrotation Xrotation Yrotation
					JOINT Neck
					{
						OFFSET 0.00000 11.07920 1.10792
						CHANNELS 3 Zrotation Xrotation Yrotation
						JOINT Neck1
						{
							OFFSET 0.00000 7.08032 0.00000
							CHANNELS 3 Zrotation Xrotation Yrotation
							JOINT Head
							{
								OFFSET 0.00000 7.08031 0.00000
								CHANNELS 3 Zrotation Xrotation Yrotation
								End site
								{
									OFFSET 0.00000 0.00000 0.00000
								}
							}
						}
					}
					JOINT RightShoulder
					{
						OFFSET -0.01000 7.91373 5.19711
						CHANNELS 3 Zrotation Xrotation Yrotation
						JOINT RightArm
						{
							OFFSET -18.41580 0.00000 0.00000
							CHANNELS 3 Zrotation Xrotation Yrotation
							JOINT RightForeArm
							{
								OFFSET -29.11090 0.00000 0.00000
								CHANNELS 3 Zrotation Xrotation Yrotation
								JOINT RightHand
								{
									OFFSET -24.65040 0.00000 0.00000
									CHANNELS 3 Zrotation Xrotation Yrotation
									JOINT RightHandThumb1
									{
										OFFSET -5.35114 -0.85590 3.97906
										CHANNELS 3 Zrotation Xrotation Yrotation
										JOINT RightHandThumb2
										{
											OFFSET -4.52789 0.00000 0.00000
											CHANNELS 3 Zrotation Xrotation Yrotation
											JOINT RightHandThumb3
											{
												OFFSET -2.46976 0.00000 0.00000
												CHANNELS 3 Zrotation Xrotation Yrotation
												End site
												{
													OFFSET 0.00000 0.00000 0.00000
												}
											}
										}
									}
									JOINT RightHandIndex1
									{
										OFFSET -14.26970 0.00000 2.88139
										CHANNELS 3 Zrotation Xrotation Yrotation
										JOINT RightHandIndex2
										{
											OFFSET -5.48836 0.00000 0.00000
											CHANNELS 3 Zrotation Xrotation Yrotation
											JOINT RightHandIndex3
											{
												OFFSET -3.01859 0.00000 0.00000
												CHANNELS 3 Zrotation Xrotation Yrotation
												End site
												{
													OFFSET 0.00000 0.00000 0.00000
												}
											}
										}
									}
									JOINT RightHandMiddle1
									{
										OFFSET -14.26970 0.00000 -0.09147
										CHANNELS 3 Zrotation Xrotation Yrotation
										JOINT RightHandMiddle2
										{
											OFFSET -6.17441 0.00000 0.00000
											CHANNELS 3 Zrotation Xrotation Yrotation
											JOINT RightHandMiddle3
											{
												OFFSET -3.56743 0.00000 0.00000
												CHANNELS 3 Zrotation Xrotation Yrotation
												End site
												{
													OFFSET 0.00000 0.00000 0.00000
												}
											}
										}
									}
									JOINT RightHandRing1
									{
										OFFSET -12.69180 0.00000 -3.06433
										CHANNELS 3 Zrotation Xrotation Yrotation
										JOINT RightHandRing2
										{
											OFFSET -5.62556 0.00000 0.00000
											CHANNELS 3 Zrotation Xrotation Yrotation
											JOINT RightHandRing3
											{
												OFFSET -3.56744 0.00000 0.00000
												CHANNELS 3 Zrotation Xrotation Yrotation
												End site
												{
													OFFSET 0.00000 0.00000 0.00000
												}
											}
										}
									}
									JOINT RightHandPinky1
									{
										OFFSET -11.11390 0.00000 -6.03719
										CHANNELS 3 Zrotation Xrotation Yrotation
										JOINT RightHandPinky2
										{
											OFFSET -4.52789 0.00000 0.00000
											CHANNELS 3 Zrotation Xrotation Yrotation
											JOINT RightHandPinky3
											{
												OFFSET -2.46976 0.00000 0.00000
												CHANNELS 3 Zrotation Xrotation Yrotation
												End site
												{
													OFFSET 0.00000 0.00000 0.00000
												}
											}
										}
									}
								}
							}
						}
					}
					JOINT LeftShoulder
					{
						OFFSET 0.01000 7.91373 5.19711
						CHANNELS 3 Zrotation Xrotation Yrotation
						JOINT LeftArm
						{
							OFFSET 18.41580 0.00000 0.00000
							CHANNELS 3 Zrotation Xrotation Yrotation
							JOINT LeftForeArm
							{
								OFFSET 29.11090 0.00000 0.00000
								CHANNELS 3 Zrotation Xrotation Yrotation
								JOINT LeftHand
								{
									OFFSET 24.65040 0.00000 0.00000
									CHANNELS 3 Zrotation Xrotation Yrotation
									JOINT LeftHandThumb1
									{
										OFFSET 5.35114 -0.85590 3.97906
										CHANNELS 3 Zrotation Xrotation Yrotation
										JOINT LeftHandThumb2
										{
											OFFSET 4.52789 0.00000 0.00000
											CHANNELS 3 Zrotation Xrotation Yrotation
											JOINT LeftHandThumb3
											{
												OFFSET 2.46977 0.00000 0.00000
												CHANNELS 3 Zrotation Xrotation Yrotation
												End site
												{
													OFFSET 0.00000 0.00000 0.00000
												}
											}
										}
									}
									JOINT LeftHandIndex1
									{
										OFFSET 14.26970 0.00000 2.88139
										CHANNELS 3 Zrotation Xrotation Yrotation
										JOINT LeftHandIndex2
										{
											OFFSET 5.48836 0.00000 0.00000
											CHANNELS 3 Zrotation Xrotation Yrotation
											JOINT LeftHandIndex3
											{
												OFFSET 3.01859 0.00000 0.00000
												CHANNELS 3 Zrotation Xrotation Yrotation
												End site
												{
													OFFSET 0.00000 0.00000 0.00000
												}
											}
										}
									}
									JOINT LeftHandMiddle1
									{
										OFFSET 14.26970 0.00000 -0.09147
										CHANNELS 3 Zrotation Xrotation Yrotation
										JOINT LeftHandMiddle2
										{
											OFFSET 6.17440 0.00000 0.00000
											CHANNELS 3 Zrotation Xrotation Yrotation
											JOINT LeftHandMiddle3
											{
												OFFSET 3.56744 0.00000 0.00000
												CHANNELS 3 Zrotation Xrotation Yrotation
												End site
												{
													OFFSET 0.00000 0.00000 0.00000
												}
											}
										}
									}
									JOINT LeftHandRing1
									{
										OFFSET 12.69180 0.00000 -3.06433
										CHANNELS 3 Zrotation Xrotation Yrotation
										JOINT LeftHandRing2
										{
											OFFSET 5.62556 0.00000 0.00000
											CHANNELS 3 Zrotation Xrotation Yrotation
											JOINT LeftHandRing3
											{
												OFFSET 3.56744 0.00000 0.00000
												CHANNELS 3 Zrotation Xrotation Yrotation
												End site
												{
													OFFSET 0.00000 0.00000 0.00000
												}
											}
										}
									}
									JOINT LeftHandPinky1
									{
										OFFSET 11.11390 0.00000 -6.03719
										CHANNELS 3 Zrotation Xrotation Yrotation
										JOINT LeftHandPinky2
										{
											OFFSET 4.52789 0.00000 0.00000
											CHANNELS 3 Zrotation Xrotation Yrotation
											JOINT LeftHandPinky3
											{
												OFFSET 2.46976 0.00000 0.00000
												CHANNELS 3 Zrotation Xrotation Yrotation
												End site
												{
													OFFSET 0.00000 0.00000 0.00000
												}
											}
										}
									}
								}
							}
						}
					}
					JOINT pCube4
					{
						OFFSET 0.00000 10.91090 1.10792
						CHANNELS 3 Zrotation Xrotation Yrotation
						End site
						{
							OFFSET 0.00000 0.00000 0.00000
						}
					}
				}
			}
		}
	}
	JOINT RightUpLeg
	{
		OFFSET -9.98441 0.00000 0.00000
		CHANNELS 3 Zrotation Xrotation Yrotation
		JOINT RightLeg
		{
			OFFSET 0.00000 -42.11790 0.00000
			CHANNELS 3 Zrotation Xrotation Yrotation
			JOINT RightFoot
			{
				OFFSET 0.00000 -45.00020 -0.00001
				CHANNELS 3 Zrotation Xrotation Yrotation
				JOINT RightForeFoot
				{
					OFFSET 0.00000 -3.74820 0.00000
					CHANNELS 3 Zrotation Xrotation Yrotation
					JOINT RightToeBase
					{
						OFFSET 0.00000 0.06325 14.43120
						CHANNELS 3 Zrotation Xrotation Yrotation
						End site
						{
							OFFSET 0.00000 0.00000 0.00000
						}
					}
				}
			}
		}
	}
	JOINT LeftUpLeg
	{
		OFFSET 9.98441 0.00000 0.00000
		CHANNELS 3 Zrotation Xrotation Yrotation
		JOINT LeftLeg
		{
			OFFSET 0.00000 -42.11800 0.00000
			CHANNELS 3 Zrotation Xrotation Yrotation
			JOINT LeftFoot
			{
				OFFSET 0.00000 -45.00070 0.00000
				CHANNELS 3 Zrotation Xrotation Yrotation
				JOINT LeftForeFoot
				{
					OFFSET 0.00000 -3.74824 0.00000
					CHANNELS 3 Zrotation Xrotation Yrotation
					JOINT LeftToeBase
					{
						OFFSET 0.00000 0.06325 14.43110
						CHANNELS 3 Zrotation Xrotation Yrotation
						End site
						{
							OFFSET 0.00000 0.00000 0.00000
						}
					}
				}
			}
		}
	}
}
MOTION
Frames: 4
Frame Time: 0.050000
0.023425586087749677 0.014094051271537435 0.0189441902470703 0.02880188431441675 0.014054011182312124 0.0334232646050597 -2.156117608738242 3.907103962316714 -1.038919214517383 -0.9635050749806983 3.84996473200664 0.3957643362552987 -0.9601516542951657 -0.3591619302602543 -1.063255953552074 0.6734538046538807 0.3707479646399018 -0.8010473050346275 -0.16565908554304073 11.020673116145234 -1.0209831522641477 -0.027018769167393108 -0.9842697474752263 -3.531359119938512 0.32043054499195167 -15.809569889304191 -0.31286969899672085 0.27707487454957397 0.5382945955383082 -14.925881781623103 66.133190024962 1.2518477286716576 9.087435407422564 30.701126248890656 -1.884404307193335 93.84255202439554 13.610098430787763 -0.34434591673896625 -4.393257754006385 4.548409678958956 -0.13907887461803212 -1.5709117639046173 -0.034517359796165575 -0.01824645914080519 -56.24188850755904 0.014699115561464474 0.02210071259620432 -56.219359946461374 -38.755466321548184 -0.03789172940668622 -0.03729832851416088 0.02721243615963255 -0.04486102239495343 -0.020606287652328484 -0.02744093038526342 -0.0059825281619652025 0.030500274052804505 -36.656567380289445 -0.004443288411460905 0.024346130414548323 0.03086894078253665 0.03241653729373454 -0.040062099248792366 -0.013860307895442155 -0.009225662349738513 -0.0357096406694117 -19.779330865714496 0.002767030046300051 0.00625942264529223 -0.02492692321015973 0.04970962160096678 -0.02970777644898443 0.018832058212941354 -0.005612060755802771 0.005543296239891831 24.035647752278436 -0.019493602124899544 -0.04746924619713542 28.824976159455886 0.033005112104627816 -0.032017221716102134 28.855432110822026 0.04131898853226339 0.014804230335619478 1.0433180031456777 0.718340262755759 12.743772075903186 -61.77384214653523 26.725701950417644 -17.093792231460185 -6.350599974129377 6.791222602398982 -75.93769446788632 -13.20831223343902 3.845558137894439 -1.7865508788552715 -0.47734833704519464 0.07723528337361647 -8.118350803291321 0.025016185143425386 -0.0076804667085674854 44.584120149187164 -0.034572473974954915 0.023782134895867238 44.58616674376945 12.432636825329224 0.04789754528485081 -0.008809427521888749 -0.018284539680887134 0.042613948609062986 -0.03880690978601324 -0.025288795078593353 -0.03767580517189128 -0.04940777886766438 11.076336775419978 -0.0408281126732631 0.04143068910745134 0.03213928356331771 -0.0002960634767564351 0.030386944818742184 -0.022469663791393982 -0.010019793864382516 0.010615179266286493 4.741142417542773 -0.04133390983038952 -0.020823385919731877 -0.024388835287089492 0.03980830723804125 0.03294976751923085 0.006092790676291381 0.00667219852781356 -0.029540883436028453 -5.629798107519284 0.001619631062084645 -0.0171373705610698 -6.699630709125601 0.009714006427577297 0.0014841428360272382 -6.68224586836252 0.046711821519894524 0.037555828528868754 -0.01681078311508049 -0.04673653879830213 -0.01029733391192612 8.065080223153577 3.5173356657070567 -19.263487319969652 -0.04854250020617747 10.391602573063071 0.04353820503184026 -5.608930649987379 -15.663107068587086 3.2161693974716883 0.019046925749153214 -0.004733659708277024 -0.0097876084275895 0.0076272437611017594 4.701096113546647 -0.040891814696413585 12.420839941597043 -8.244424387647905 6.9245538058947425 0.04940580955001522 46.34535792082367 -0.03372675758454242 -4.30559901351878 -14.743653897205794 -3.8360816852716537 0.019831502158379647 -0.006289729599189249 0.040522210322387384 0.043622380595829006 -10.704504202290297 0.023091874977729215 
0.03499858039442744 0.01620753410923202 -0.03631751320367269 -0.043496925820915106 0.011191037208395786 0.021990138102135497 -2.2056466123091676 3.9938307432884836 -0.9754233291061601 -0.947468022236201 3.874542512711536 0.3519230495391622 -0.9296474530747995 -0.3590725138811193 -0.9167953333492094 0.5674800103480337 0.35669132920657487 -0.8358967279423646 -0.2813527713889312 11.04932448865043 -0.8337206365746035 -0.06165072963316827 -1.0266577275518185 -3.3655878578935896 0.29375463221981196 -15.830276532769384 -0.2237006785619187 0.4565819932084081 0.4353050216211182 -14.569381342448624 65.53770103222999 3.4631932615822976 10.876929015011328 31.176847675563984 -2.3670453327015943 93.02865253523781 15.113498008103118 -0.3236715586849139 -5.0310781578480945 4.5629221834903335 -0.08613580518214567 -1.6009130273387422 0.015396381596385855 0.010802936690314685 -56.21896517200808 0.031747638775752374 -0.04366924891315371 -56.28114757640797 -38.78278895943234 0.025707017445442754 -0.015643053385774958 -0.009660585264532204 0.03531112221899921 0.026893725505633122 0.034924299774954905 -0.03479042282635659 0.016893718440883564 -36.705101665581665 -0.003092139271722102 -0.009462450803232034 -0.00047695318573115497 0.005105236504541669 0.0005863383804277232 -0.026913612056134066 0.03193661889158845 -0.009475605318139102 -19.757543958976 -0.02635757137503049 0.020419258775268824 -0.02585350020768058 -0.016208220760748033 -0.015105463618059917 -0.021333158156440775 -0.03183016258172729 0.005191537320942823 24.044474565434168 -0.015422389767810707 0.027608500190619868 28.8199187234647 0.02823321883474113 0.011088979479976181 28.840673871243006 -0.023741354178268545 -0.00858602750991095 1.2861970588515894 0.6957269238141215 12.663753560193365 -60.60179689504511 26.75896398764237 -19.52377667981461 -4.581896806472784 5.178347425123021 -77.17964751332319 -13.809449501964119 4.34631688989651 -2.304238830507399 -0.4687907812811239 0.09032443605175441 -8.158375286784086 -0.03319861827534017 -0.030605796771851677 44.600514991311094 0.015967233997277144 -0.04168880103845102 44.573128033627334 12.491787053106705 -0.03652692725359711 0.04193396819109257 0.03655854283392616 0.013655358991995107 0.019365026586561352 0.03741154725100157 0.035584228134482504 -0.02777429866129431 11.144207845916542 -0.030290156758999306 -0.001562978163453296 -0.03548713650635637 0.026041923890263198 0.04969087886420505 -0.0023076738721777945 0.029784022467892506 0.03767025986911808 4.78372684415075 -0.029803429508732306 -0.0038647442118603637 -0.002783935070235043 0.036238833070606824 -0.0012832225406612073 0.02390145200976568 0.03302533960450426 -0.04269969565534188 -5.604238187436843 0.008541496760357658 -0.008115594278070523 -6.713622497300219 -0.01968663242454714 0.02162594431507078 -6.686585483902506 -0.02068667305611931 -0.03675549664139397 -0.0057201962280037716 -0.010889940903654187 -0.040990691001134 7.995329466444945 3.482097272694024 -19.22756819310844 0.03391193880652846 10.390112430274064 0.04923890346704789 -5.660273009914875 -15.685893356669101 3.1564755337964305 0.009715457945753028 0.002617332921052895 -0.01159168205696884 -0.0160859208926171 4.734948098304939 -0.036900797227439205 12.450311913763745 -8.218597628116747 6.932089863689651 0.012248021839014639 46.35716796096192 0.008553627678905173 -4.351771229672152 -14.739341515064176 -3.79099424443726 -0.02367457229121289 -0.04436573181108457 0.007599174481125871 0.02925652669531183 -10.711116135033365 -0.017421100963610214 
0.006168780116319043 -0.015655861335028037 -0.02636244032780094 -0.04165167645120291 0.0012710555964598625 0.0031679430629629997 -2.2149472280631346 4.097753886093809 -0.9855566804786716 -0.9385861862324284 3.798290964194503 0.4238961085513576 -0.8699663860879041 -0.2844501527202456 -1.0077511242461326 0.5969912750997203 0.34823867794676333 -0.7933555545001022 -0.36308616325402915 11.054882721725466 -0.8421912684706175 -0.08532186609028342 -1.002614655527317 -3.308916583269857 0.25193913091805636 -15.84578721888112 -0.20216063181228516 0.7138233929067843 0.3959568890806481 -14.356958486242263 64.81898257187255 4.5732804900214425 12.028532861487514 31.84092997370653 -2.4242897357551776 92.52192638849348 16.036179637130054 -0.2748397305898329 -5.592063968713736 4.534589052285785 -0.08475885412533612 -1.5833680547196038 0.011261114576555147 -0.015521223063352385 -56.24050510844445 -0.01965568499921643 -0.02346507120443543 -56.231875040727346 -38.77260275242487 0.0446949041239547 0.014499833758614819 -0.023713599336896964 0.00391262250639602 -0.007849765239738947 0.045525959085827086 0.033998657205499175 0.024835644217834893 -36.70146828536985 -0.024858203225108913 -0.04145948935205816 0.005800589216988706 0.03874206191813271 0.041950328127339766 0.0071633220948531424 -0.012082253140168937 0.0020594459180364516 -19.73490956637232 0.036961778215441554 -0.007499447656058765 0.013149542120044624 0.049196643611898204 -0.036992867027723114 0.041294446860727106 -0.038777815201724575 0.020838704845699076 24.062511338795087 0.0024608835256063307 -0.00452338311564631 28.913240011135823 0.0007763620085242868 0.016625699046308534 28.84914460306911 -0.011372110676720896 0.04903768825984552 1.205567314950918 0.7551596200496058 12.607855905663355 -59.47463621488303 27.21611508595868 -21.314654128382347 -2.5853260141182144 3.881023352286148 -78.13103971690715 -13.907142874756573 4.701508768004252 -2.7595410841942365 -0.4738487750596104 0.05620811046324058 -8.132789328900135 -0.01600692753755137 0.00621989284081851 44.546700062502424 0.00847614807183027 -0.04526963519713809 44.546647831717486 12.480804225216268 -0.00848851440758701 0.018508568943962904 -0.006164391059060131 -0.04241679201049228 -0.007418571452526638 0.019413029605768514 -0.035605797964248356 -0.010750858585733655 11.100873217612266 -0.006411475486007521 0.04448010365482164 0.04552448436687178 0.028654378646551248 -0.031313979091546255 0.02787681015888016 -0.025759569108933515 0.004638399136564824 4.81957725316152 -6.797896647876395e-05 0.006900316811761616 0.03867096719848063 -0.03124677163166985 0.040245517095631414 -0.02477443508369811 0.0002785549990230745 0.0351834401230962 -5.595221893883941 0.007449086062118813 -0.0401606927147847 -6.752630691666357 -0.046723306020020824 0.00480211395711433 -6.735480110629372 0.04430292652096097 5.4022071089544176e-05 -0.03005733818244697 0.03163922253247337 -0.033267344553872515 8.007863758515997 3.474277400658207 -19.23957491962537 0.0027107679927414175 10.385533167313374 -0.00839293736884137 -5.643065479832285 -15.67267718570693 3.1467786103562787 0.025943451336963425 0.04170897652022773 -0.017057567600258318 0.02340469858272269 4.679335666948961 0.035788139522768075 12.431740171525066 -8.22116837067271 6.868561455987131 -0.032378870034323326 46.34652611838155 0.01102918942616085 -4.313730988197455 -14.740137687626474 -3.802170839346721 -0.04338090367193416 0.0014176015441306027 -0.041514229640586806 -0.00518214179517156 -10.7894251900424 0.01569701349707268 
0.036265096919839014 0.04529111948607245 0.01670999326570628 -0.002678306031551183 0.017644418918598786 0.04899035258867334 -2.272411266464282 4.271242172100256 -0.9726092801070048 -0.8640525035021165 3.8184282764594464 0.4315564488062228 -0.9450323902575821 -0.31882335042887977 -1.0709961106582095 0.637955381706665 0.4354295744862028 -0.8352981378365891 -0.34552256721588265 11.001714747306504 -0.8201658561880936 -0.10826411222025716 -1.038433207306252 -3.4285749971624204 0.25954149015525596 -15.836607039160896 -0.2504768244547355 1.063144941843187 0.32917946459285236 -14.202549058761223 64.04313917783107 4.941363468620202 12.885707449074589 32.84613340707988 -2.0318878982872968 92.44691126304663 16.713656913377516 -0.3086489743472544 -6.031943158980864 4.512232604173605 -0.15570819697136176 -1.572651690262365 -0.01196261208536531 -0.026762807163195908 -56.25676651570586 -0.040950963796032615 -0.00010863150892889765 -56.25052048960412 -38.80344885011511 0.04555357721673932 0.0010957443640571898 -0.011336108627789323 -0.021387957719671086 0.029916617655236823 0.03315106810728835 -0.04342699396302216 0.025137734685160302 -36.74049096454136 0.002643193505845712 0.011718298833053052 0.0004408245172492262 0.017939770266839822 0.0017018502444286635 -0.0063150365182067 -0.0032705384032207245 -0.044380045570002205 -19.737726310213354 -0.027401928432075586 -0.010638249185057451 0.006459256585135435 -0.0027274915098821173 0.01378179001229726 0.029754556538971088 0.04514699309492536 -0.01846790235342968 24.093523216909233 -0.019695046613267823 0.03889310594213814 28.878857393358786 0.03524390019804886 -0.03424566012905276 28.85841039239155 -0.029730030298641776 -0.030385560532289885 0.9799661609343039 0.6429135965600399 12.449035088640318 -58.406327974392674 27.78044320931214 -22.578077126354422 -0.42651291394797525 2.9187291560787347 -78.84248280316669 -13.866748379565466 4.979400246901982 -3.1641859997151442 -0.5173375370053215 0.09909348500813943 -8.131195192204524 0.03410302065809315 -0.0013691394332838965 44.55273922743064 0.0368591675132925 0.029499783847150556 44.577194884990504 12.485404480541208 0.018557439032049473 -0.043127000423590085 0.001241219890503704 0.010930038472331654 0.02835617120201662 -0.01794222432291724 0.035921170941463486 -0.04022988755587174 11.068736886274985 -0.012334409439021391 -0.03292643796820177 -0.03342538765537442 0.010904370776764438 -0.03665303260309039 0.03361730220077055 0.04213627856109959 0.013992511678006088 4.793192530953572 0.00986705158135024 0.012493440292308925 -0.028096082221470784 0.02028874347844004 -0.014639585806117508 0.023320715387963587 0.03991661904738723 -0.017456919642167345 -5.568308807036717 -0.013929972327680963 -0.006676585763368335 -6.685801329043955 -0.04900474514989692 -0.0007284163599796631 -6.737731660492505 0.02789709778889875 -0.007257849588261815 -0.014875945123630274 0.003975115103149611 -0.005034400795131651 8.019515654809663 3.472729676630213 -19.22698235265761 0.032571844407087526 10.403187071287855 -0.023628410157448692 -5.583012589061562 -15.63104917824215 3.2219016342523723 -8.102966327279343e-05 -0.033977168992834254 0.025857351216136824 0.04032786505079224 4.684121700422105 0.002900566382044201 12.483695972417863 -8.288450870157245 6.904615031490292 -0.026704853817860287 46.40140689714013 -0.04442357984376298 -4.331235214837525 -14.760822716645235 -3.793731804517416 0.02780192518675045 -0.014802982393242866 0.010625612538440606 0.0025453944235761077 -10.753493179709148 -0.005910722113364211 
